<svg width="100" height="36" viewBox="0 0 100 36" fill="none" xmlns="http://www.w3.org/2000/svg">
<rect x="27" y="8.00098" width="5" height="26" rx="2" transform="rotate(90 27 8.00098)" fill="#0B0D14"/>
<rect x="24.3994" y="15.001" width="5" height="20.8" rx="2" transform="rotate(90 24.3994 15.001)" fill="#0B0D14"/>
<rect x="19.2002" y="22.001" width="5" height="10.4" rx="2" transform="rotate(90 19.2002 22.001)" fill="#0B0D14"/>
<path d="M38.18 9.56098H49.3V11.541L42.12 21.001H49.48V23.561H38V21.581L45.18 12.121H38.18V9.56098Z" fill="#0B0D14"/>
<path d="M53.6186 9.46098C53.9186 9.76098 54.0786 10.141 54.0786 10.581C54.0786 11.041 53.9186 11.421 53.6186 11.721C53.2986 12.041 52.9186 12.181 52.4586 12.181C51.9786 12.181 51.5986 12.041 51.2786 11.721C50.9586 11.421 50.8186 11.041 50.8186 10.581C50.8186 10.141 50.9586 9.76098 51.2786 9.46098C51.5986 9.16098 51.9786 9.00098 52.4586 9.00098C52.9186 9.00098 53.2986 9.16098 53.6186 9.46098ZM51.0386 13.281H53.8586V23.561H51.0386V13.281Z" fill="#0B0D14"/>
<path d="M64.2437 13.821C64.9637 14.261 65.5237 14.861 65.9237 15.661C66.3237 16.461 66.5438 17.401 66.5438 18.441C66.5438 19.501 66.3237 20.421 65.9237 21.201C65.5237 22.001 64.9637 22.601 64.2437 23.041C63.5238 23.481 62.7038 23.681 61.7838 23.681C60.4638 23.681 59.4237 23.221 58.6838 22.261V27.561H55.8638V13.281H58.3237L58.6038 14.701C58.9438 14.241 59.3838 13.861 59.9237 13.581C60.4638 13.301 61.0838 13.161 61.8038 13.161C62.7238 13.161 63.5238 13.381 64.2437 13.821ZM62.9838 20.561C63.4438 20.001 63.6838 19.281 63.6838 18.401C63.6838 17.521 63.4438 16.821 62.9838 16.281C62.5038 15.741 61.9038 15.461 61.1438 15.461C60.3838 15.461 59.7638 15.741 59.3237 16.281C58.8638 16.821 58.6437 17.521 58.6437 18.401C58.6437 19.301 58.8638 20.021 59.3237 20.561C59.7638 21.121 60.3838 21.381 61.1438 21.381C61.9038 21.381 62.5038 21.121 62.9838 20.561Z" fill="#0B0D14"/>
<path d="M76.5298 13.821C77.2498 14.261 77.8098 14.861 78.2098 15.661C78.6098 16.461 78.8298 17.401 78.8298 18.441C78.8298 19.501 78.6098 20.421 78.2098 21.201C77.8098 22.001 77.2498 22.601 76.5298 23.041C75.8098 23.481 74.9898 23.681 74.0698 23.681C72.7498 23.681 71.7098 23.221 70.9698 22.261V27.561H68.1498V13.281H70.6098L70.8898 14.701C71.2298 14.241 71.6698 13.861 72.2098 13.581C72.7498 13.301 73.3698 13.161 74.0898 13.161C75.0098 13.161 75.8098 13.381 76.5298 13.821ZM75.2698 20.561C75.7298 20.001 75.9698 19.281 75.9698 18.401C75.9698 17.521 75.7298 16.821 75.2698 16.281C74.7898 15.741 74.1898 15.461 73.4298 15.461C72.6698 15.461 72.0498 15.741 71.6098 16.281C71.1498 16.821 70.9298 17.521 70.9298 18.401C70.9298 19.301 71.1498 20.021 71.6098 20.561C72.0498 21.121 72.6698 21.381 73.4298 21.381C74.1898 21.381 74.7898 21.121 75.2698 20.561Z" fill="#0B0D14"/>
<path d="M80.6759 15.661C81.1159 14.861 81.7159 14.261 82.4959 13.821C83.2759 13.381 84.1759 13.161 85.2159 13.161C86.2559 13.161 87.1559 13.381 87.9559 13.781C88.7559 14.181 89.3759 14.761 89.8159 15.501C90.2559 16.241 90.4959 17.101 90.5159 18.101C90.5159 18.461 90.4759 18.781 90.4359 19.061H82.9759V19.141C83.0359 19.901 83.2759 20.481 83.6959 20.901C84.0959 21.341 84.6759 21.541 85.3959 21.541C85.9559 21.541 86.4359 21.421 86.8159 21.181C87.1959 20.941 87.4559 20.561 87.5759 20.081H90.3559C90.2359 20.761 89.9759 21.381 89.5759 21.921C89.1559 22.481 88.6159 22.901 87.9359 23.221C87.2559 23.541 86.4759 23.681 85.5959 23.681C84.4359 23.681 83.4559 23.481 82.6159 23.041C81.7759 22.621 81.1359 22.021 80.6959 21.221C80.2559 20.421 80.0359 19.501 80.0359 18.441C80.0359 17.381 80.2359 16.461 80.6759 15.661ZM87.6959 17.221C87.5959 16.601 87.3359 16.121 86.9159 15.781C86.4959 15.441 85.9759 15.261 85.3359 15.261C84.7159 15.261 84.1959 15.441 83.7759 15.801C83.3559 16.161 83.1159 16.621 83.0359 17.221H87.6959Z" fill="#0B0D14"/>
<path d="M98.357 13.281V15.841H97.237C96.437 15.841 95.837 16.081 95.477 16.561C95.097 17.041 94.917 17.701 94.917 18.521V23.561H92.097V13.281H94.657L94.917 14.821C95.217 14.321 95.597 13.941 96.057 13.681C96.497 13.421 97.117 13.281 97.877 13.281H98.357Z" fill="#0B0D14"/>
</svg>
